<?xml version="1.0" encoding="UTF-8" standalone="no"?>
<!-- Created with Inkscape (http://www.inkscape.org/) -->

<svg
   width="1280"
   height="640"
   viewBox="0 0 338.66667 169.33333"
   version="1.1"
   id="svg5"
   inkscape:version="1.1 (c68e22c387, 2021-05-23)"
   sodipodi:docname="banner.svg"
   inkscape:export-filename="E:\hey don't open me\Java\Experiments\featherpowders\bitmap.png"
   inkscape:export-xdpi="96"
   inkscape:export-ydpi="96"
   xmlns:inkscape="http://www.inkscape.org/namespaces/inkscape"
   xmlns:sodipodi="http://sodipodi.sourceforge.net/DTD/sodipodi-0.dtd"
   xmlns="http://www.w3.org/2000/svg"
   xmlns:svg="http://www.w3.org/2000/svg"
   xmlns:rdf="http://www.w3.org/1999/02/22-rdf-syntax-ns#"
   xmlns:cc="http://creativecommons.org/ns#"
   xmlns:dc="http://purl.org/dc/elements/1.1/">
  <title
     id="title7231">FeatherPowders Banner</title>
  <sodipodi:namedview
     id="namedview7"
     pagecolor="#ffffff"
     bordercolor="#999999"
     borderopacity="1"
     inkscape:pageshadow="0"
     inkscape:pageopacity="1"
     inkscape:pagecheckerboard="0"
     inkscape:document-units="mm"
     showgrid="false"
     units="px"
     showguides="true"
     inkscape:zoom="0.081890663"
     inkscape:cx="1746.2308"
     inkscape:cy="689.94434"
     inkscape:window-width="1366"
     inkscape:window-height="705"
     inkscape:window-x="-8"
     inkscape:window-y="-8"
     inkscape:window-maximized="1"
     inkscape:current-layer="layer1">
    <inkscape:grid
       type="xygrid"
       id="grid1595"
       dotted="true" />
  </sodipodi:namedview>
  <defs
     id="defs2" />
  <g
     inkscape:label="Layer 1"
     inkscape:groupmode="layer"
     id="layer1">
    <rect
       style="opacity:0.999;fill:#ffffff;fill-opacity:1;stroke:none;stroke-width:0.280016;stroke-linecap:round;stroke-linejoin:round;stroke-miterlimit:4;stroke-dasharray:none"
       id="rect7293"
       width="338.66666"
       height="169.33333"
       x="0"
       y="0" />
    <path
       d="M 133.76366,85.619751 V 58.759252 h 16.6116 v 2.6289 h -13.5255 v 9.2583 h 12.7635 v 2.628899 h -12.7635 v 12.3444 z"
       id="path7096"
       style="font-size:38.1px;line-height:1.25;font-family:'Nunito Sans';-inkscape-font-specification:'Nunito Sans';stroke-width:0.264583" />
    <path
       d="m 169.69192,76.818651 h -13.5636 q 0.1524,3.2385 1.7526,4.9149 1.6002,1.6383 4.5339,1.6383 3.2385,0 5.9436,-2.2098 l 1.0287,2.2479 q -1.2192,1.143 -3.1242,1.8288 -1.905,0.6477 -3.8862,0.6477 -4.3434,0 -6.858,-2.5527 -2.4765,-2.5527 -2.4765,-7.0485 0,-2.8575 1.1049,-5.029199 1.1049,-2.2098 3.0861,-3.429 2.0193,-1.2192 4.572,-1.2192 3.6957,0 5.7912,2.4384 2.0955,2.4003 2.0955,6.629399 z m -7.8486,-7.810499 q -2.4384,0 -3.9243,1.524 -1.4478,1.524 -1.7145,4.305299 h 10.7823 q -0.0762,-2.819399 -1.4097,-4.305299 -1.3335,-1.524 -3.7338,-1.524 z"
       id="path7098"
       style="font-size:38.1px;line-height:1.25;font-family:'Nunito Sans';-inkscape-font-specification:'Nunito Sans';stroke-width:0.264583" />
    <path
       d="m 181.76956,66.607852 q 3.5433,0 5.2578,1.8288 1.7526,1.7907 1.7526,5.486399 v 11.6967 h -3.0099 v -3.1623 q -0.7239,1.6383 -2.2098,2.5527 -1.4859,0.8763 -3.429,0.8763 -1.7907,0 -3.3147,-0.7239 -1.4859,-0.7239 -2.3622,-2.0193 -0.8763,-1.2954 -0.8763,-2.8575 0,-2.0955 1.0668,-3.2385 1.0668,-1.1811 3.5052,-1.6764 2.4384,-0.5334 6.7818,-0.5334 h 0.8382 v -1.2573 q 0,-2.324099 -0.9525,-3.352799 -0.9525,-1.0668 -3.0861,-1.0668 -3.2004,0 -6.3627,1.9812 l -1.0287,-2.2479 q 1.4478,-1.0287 3.4671,-1.6383 2.0574,-0.6477 3.9624,-0.6477 z m -1.2192,16.840199 q 2.286,0 3.7338,-1.524 1.4859,-1.5621 1.4859,-4.0005 v -1.1049 h -0.6858 q -3.3528,0 -5.1054,0.3048 -1.7526,0.2667 -2.5146,0.9525 -0.7239,0.6477 -0.7239,1.9431 0,1.4859 1.0668,2.4765 1.1049,0.9525 2.7432,0.9525 z"
       id="path7100"
       style="font-size:38.1px;line-height:1.25;font-family:'Nunito Sans';-inkscape-font-specification:'Nunito Sans';stroke-width:0.264583" />
    <path
       d="m 202.57211,83.409951 q 0.8382,0 1.6764,-0.1143 l -0.1524,2.4384 q -0.8763,0.1524 -1.905,0.1524 -3.3528,0 -5.0673,-1.7526 -1.6764,-1.7526 -1.6764,-4.8768 v -9.753599 h -3.6195 v -2.4384 h 3.6195 v -5.6388 h 3.0861 v 5.6388 h 5.2578 v 2.4384 h -5.2578 v 9.524999 q 0,4.3815 4.0386,4.3815 z"
       id="path7102"
       style="font-size:38.1px;line-height:1.25;font-family:'Nunito Sans';-inkscape-font-specification:'Nunito Sans';stroke-width:0.264583" />
    <path
       d="m 216.70714,66.607852 q 6.6675,0 6.6675,7.353299 v 11.6586 h -3.0861 v -11.4681 q 0,-2.590799 -1.0287,-3.771899 -0.9906,-1.1811 -3.2004,-1.1811 -2.5527,0 -4.0767,1.5621 -1.524,1.5621 -1.524,4.229099 v 10.6299 h -3.0861 V 58.759252 h 3.0861 v 11.2776 q 0.9144,-1.6764 2.5146,-2.5527 1.6383,-0.8763 3.7338,-0.8763 z"
       id="path7104"
       style="font-size:38.1px;line-height:1.25;font-family:'Nunito Sans';-inkscape-font-specification:'Nunito Sans';stroke-width:0.264583" />
    <path
       d="m 244.55821,76.818651 h -13.5636 q 0.1524,3.2385 1.7526,4.9149 1.6002,1.6383 4.5339,1.6383 3.2385,0 5.9436,-2.2098 l 1.0287,2.2479 q -1.2192,1.143 -3.1242,1.8288 -1.905,0.6477 -3.8862,0.6477 -4.3434,0 -6.858,-2.5527 -2.4765,-2.5527 -2.4765,-7.0485 0,-2.8575 1.1049,-5.029199 1.1049,-2.2098 3.0861,-3.429 2.0193,-1.2192 4.572,-1.2192 3.6957,0 5.7912,2.4384 2.0955,2.4003 2.0955,6.629399 z m -7.8486,-7.810499 q -2.4384,0 -3.9243,1.524 -1.4478,1.524 -1.7145,4.305299 h 10.7823 q -0.0762,-2.819399 -1.4097,-4.305299 -1.3335,-1.524 -3.7338,-1.524 z"
       id="path7106"
       style="font-size:38.1px;line-height:1.25;font-family:'Nunito Sans';-inkscape-font-specification:'Nunito Sans';stroke-width:0.264583" />
    <path
       d="m 259.60764,69.274852 -2.0193,0.1905 q -2.8575,0.2667 -4.1529,1.7907 -1.2573,1.523999 -1.2573,3.771899 v 10.5918 h -3.0861 V 67.065052 h 3.0099 v 3.2385 q 1.5621,-3.2385 6.1341,-3.6195 l 1.1049,-0.0762 z"
       id="path7108"
       style="font-size:38.1px;line-height:1.25;font-family:'Nunito Sans';-inkscape-font-specification:'Nunito Sans';stroke-width:0.264583" />
    <path
       d="m 133.76366,88.392536 h 10.6299 q 4.2291,0 6.5532,2.057391 2.3622,2.057388 2.3622,5.829267 0,3.771876 -2.3622,5.867376 -2.3622,2.0955 -6.5532,2.0955 h -7.5057 v 11.0109 h -3.1242 z m 10.3251,13.258734 q 6.1341,0 6.1341,-5.372076 0,-5.29587 -6.1341,-5.29587 h -7.2009 v 10.667946 z"
       id="path7110"
       style="font-size:38.1px;line-height:1.25;font-family:'Nunito Sans';-inkscape-font-specification:'Nunito Sans';stroke-width:0.264583" />
    <path
       d="m 164.96747,115.51967 q -2.6289,0 -4.6482,-1.1811 -1.9812,-1.1811 -3.0861,-3.3528 -1.0668,-2.2098 -1.0668,-5.1054 0,-2.8956 1.0668,-5.0673 1.1049,-2.209791 3.0861,-3.390885 2.0193,-1.181091 4.6482,-1.181091 2.6289,0 4.6482,1.181091 2.0193,1.181094 3.0861,3.390885 1.1049,2.1717 1.1049,5.0673 0,2.8956 -1.1049,5.1054 -1.0668,2.1717 -3.0861,3.3528 -2.0193,1.1811 -4.6482,1.1811 z m 0,-2.5527 q 2.7432,0 4.191,-1.7907 1.4859,-1.8288 1.4859,-5.2959 0,-3.3909 -1.4859,-5.2197 -1.4859,-1.866891 -4.191,-1.866891 -2.7051,0 -4.191,1.866891 -1.4859,1.8288 -1.4859,5.2197 0,3.429 1.4478,5.2578 1.4859,1.8288 4.2291,1.8288 z"
       id="path7112"
       style="font-size:38.1px;line-height:1.25;font-family:'Nunito Sans';-inkscape-font-specification:'Nunito Sans';stroke-width:0.264583" />
    <path
       d="m 203.37219,96.698291 h 3.0861 l -6.8961,18.554679 h -2.9718 l -5.2197,-14.3637 -5.2578,14.3637 h -2.9337 l -6.8961,-18.554679 h 3.2004 l 5.2578,14.897079 5.3721,-14.897079 h 2.667 l 5.2959,14.897079 z"
       id="path7114"
       style="font-size:38.1px;line-height:1.25;font-family:'Nunito Sans';-inkscape-font-specification:'Nunito Sans';stroke-width:0.264583" />
    <path
       d="m 226.49884,88.392536 v 26.860434 h -3.0861 v -3.3909 q -0.8382,1.7526 -2.4765,2.7051 -1.6002,0.9525 -3.7719,0.9525 -2.4384,0 -4.3053,-1.2192 -1.8669,-1.2192 -2.8956,-3.3909 -1.0287,-2.2098 -1.0287,-5.1054 0,-2.8575 1.0287,-5.0292 1.0287,-2.171691 2.8956,-3.352785 1.8669,-1.181091 4.3053,-1.181091 2.1717,0 3.7719,0.952494 1.6383,0.952494 2.4765,2.705085 V 88.392536 Z m -8.7249,24.574434 q 2.7051,0 4.1529,-1.8288 1.4859,-1.8669 1.4859,-5.2578 0,-3.3909 -1.4859,-5.2197 -1.4478,-1.828791 -4.1529,-1.828791 -2.7051,0 -4.2291,1.828791 -1.4859,1.8288 -1.4859,5.1435 0,3.3909 1.4859,5.2959 1.524,1.8669 4.2291,1.8669 z"
       id="path7116"
       style="font-size:38.1px;line-height:1.25;font-family:'Nunito Sans';-inkscape-font-specification:'Nunito Sans';stroke-width:0.264583" />
    <path
       d="m 247.75859,106.45187 h -13.5636 q 0.1524,3.2385 1.7526,4.9149 1.6002,1.6383 4.5339,1.6383 3.2385,0 5.9436,-2.2098 l 1.0287,2.2479 q -1.2192,1.143 -3.1242,1.8288 -1.905,0.6477 -3.8862,0.6477 -4.3434,0 -6.858,-2.5527 -2.4765,-2.5527 -2.4765,-7.0485 0,-2.8575 1.1049,-5.0292 1.1049,-2.209791 3.0861,-3.428985 2.0193,-1.219191 4.572,-1.219191 3.6957,0 5.7912,2.438385 2.0955,2.400291 2.0955,6.629391 z m -7.8486,-7.810491 q -2.4384,0 -3.9243,1.523991 -1.4478,1.524 -1.7145,4.3053 h 10.7823 q -0.0762,-2.8194 -1.4097,-4.3053 -1.3335,-1.523991 -3.7338,-1.523991 z"
       id="path7118"
       style="font-size:38.1px;line-height:1.25;font-family:'Nunito Sans';-inkscape-font-specification:'Nunito Sans';stroke-width:0.264583" />
    <path
       d="m 262.80804,98.908079 -2.0193,0.190497 q -2.8575,0.2667 -4.1529,1.790694 -1.2573,1.524 -1.2573,3.7719 v 10.5918 h -3.0861 V 96.698291 h 3.0099 v 3.238482 q 1.5621,-3.238482 6.1341,-3.619482 l 1.1049,-0.0762 z"
       id="path7120"
       style="font-size:38.1px;line-height:1.25;font-family:'Nunito Sans';-inkscape-font-specification:'Nunito Sans';stroke-width:0.264583" />
    <path
       d="m 271.83765,115.51967 q -4.6863,0 -7.4295,-2.4003 l 1.0287,-2.286 q 1.4859,1.1811 3.0099,1.7145 1.5621,0.4953 3.5052,0.4953 2.0574,0 3.1242,-0.6858 1.1049,-0.7239 1.1049,-2.0574 0,-1.1049 -0.7239,-1.7526 -0.7239,-0.6477 -2.4003,-1.0287 l -3.1242,-0.7239 q -2.3622,-0.5334 -3.6195,-1.8288 -1.2573,-1.2954 -1.2573,-3.2004 0,-2.476494 1.9431,-4.000485 1.9431,-1.523991 5.1816,-1.523991 1.9431,0 3.6957,0.647694 1.7526,0.609597 2.9337,1.790691 l -1.0287,2.247891 q -2.5527,-2.171691 -5.6007,-2.171691 -1.9431,0 -3.048,0.761994 -1.0668,0.723897 -1.0668,2.057397 0,1.1049 0.6477,1.7907 0.6858,0.6477 2.1717,0.9906 l 3.1623,0.762 q 2.5908,0.6096 3.8481,1.8669 1.2573,1.2192 1.2573,3.2004 0,2.4384 -1.9812,3.8862 -1.9431,1.4478 -5.334,1.4478 z"
       id="path7122"
       style="font-size:38.1px;line-height:1.25;font-family:'Nunito Sans';-inkscape-font-specification:'Nunito Sans';stroke-width:0.264583" />
    <path
       id="path869"
       style="fill:#000000;fill-opacity:1;stroke:none;stroke-width:4;stroke-linecap:butt;stroke-linejoin:round;stroke-miterlimit:4;stroke-dasharray:none;stroke-opacity:1"
       d="M 236.21875 208.03906 C 231.60488 208.05483 229.82617 209.85938 229.82617 209.85938 C 229.82617 209.85938 221.33203 216.37062 221.33203 241.55664 C 221.33203 266.74266 241.55664 300.70508 241.55664 300.70508 L 232.39844 287.34961 C 232.39844 287.34961 225.91129 307.76595 247.28125 337.53125 C 267.97178 366.35021 270.0633 372.99042 308.44727 392.7793 L 309.03906 391.75391 L 313.36914 394.25391 L 310.86914 398.58398 L 306.53906 396.08398 L 308.41602 392.83398 C 301.06318 389.17628 285.43938 381.22258 282.38867 378.17188 C 278.38181 374.16501 263.49937 372.44879 260.82812 374.16602 C 260.82812 374.16602 281.05258 388.66553 294.59961 400.87695 C 297.4581 403.45362 300.88308 406.32759 304.75 409.18164 L 305.86914 407.24414 L 308.36914 402.91406 L 312.69922 405.41406 L 310.19922 409.74414 L 308.85156 412.08008 C 310.21286 412.99773 311.62138 413.90021 313.06641 414.7793 L 314.5293 412.24414 L 318.85938 414.74414 L 317.40234 417.26562 C 318.86201 418.05366 320.35426 418.80728 321.87695 419.51953 L 323.18945 417.24414 L 327.51953 419.74414 L 326.50195 421.50586 C 329.39241 422.63642 332.37101 423.58589 335.41602 424.30273 L 331.84961 422.24414 L 334.34961 417.91406 L 330.01953 415.41406 L 332.51953 411.08398 L 328.18945 408.58398 L 325.68945 412.91406 L 321.35938 410.41406 L 323.85938 406.08398 L 328.18945 408.58398 L 330.68945 404.25391 L 335.01953 406.75391 L 337.51953 402.42383 L 341.84961 404.92383 L 344.34961 400.59375 L 348.67969 403.09375 L 346.17969 407.42383 L 341.84961 404.92383 L 339.34961 409.25391 L 335.01953 406.75391 L 332.51953 411.08398 L 336.84961 413.58398 L 334.34961 417.91406 L 338.67969 420.41406 L 336.3125 424.51562 C 341.74524 425.70542 347.37959 426.12645 353.09766 425.44141 L 354.16992 423.58398 L 349.83984 421.08398 L 347.33984 425.41406 L 343.00977 422.91406 L 345.50977 418.58398 L 341.17969 416.08398 L 343.67969 411.75391 L 348.00977 414.25391 L 345.50977 418.58398 L 349.83984 421.08398 L 352.33984 416.75391 L 354.83984 412.42383 L 350.50977 409.92383 L 353.00977 405.59375 L 357.33984 408.09375 L 359.83984 403.76367 L 364.16992 406.26367 L 366.66992 401.93359 L 362.33984 399.43359 L 364.83984 395.10352 L 369.16992 397.60352 L 371.66992 393.27344 L 376 395.77344 L 378.5 391.44336 L 382.83008 393.94336 L 385.33008 389.61328 L 381 387.11328 L 382.61133 384.32227 C 381.64068 382.82902 380.62762 381.23968 379.58789 379.55859 L 379.16992 380.2832 L 374.83984 377.7832 L 370.50977 375.2832 L 373.00977 370.95312 L 375.26758 372.25586 C 371.35 365.28029 367.8652 357.92559 366.72461 352.22266 C 366.70617 352.13044 366.68312 352.03593 366.66406 351.94336 L 365.01953 354.79297 L 362.51953 359.12305 L 366.84961 361.62305 L 364.34961 365.95312 L 360.01953 363.45312 L 357.51953 367.7832 L 353.18945 365.2832 L 350.68945 369.61328 L 355.01953 372.11328 L 352.51953 376.44336 L 348.18945 373.94336 L 345.68945 378.27344 L 341.35938 375.77344 L 338.85938 380.10352 L 334.5293 377.60352 L 332.0293 381.93359 L 336.35938 384.43359 L 333.85938 388.76367 L 329.5293 386.26367 L 332.0293 381.93359 L 327.69922 379.43359 L 330.19922 375.10352 L 325.86914 372.60352 L 323.36914 376.93359 L 319.03906 374.43359 L 316.53906 378.76367 L 320.86914 381.26367 L 325.19922 383.76367 L 322.69922 388.09375 L 318.36914 385.59375 L 314.03906 383.09375 L 311.53906 387.42383 L 307.20703 384.92383 L 309.70703 380.59375 L 314.03906 383.09375 L 316.53906 378.76367 L 312.20703 376.26367 L 314.70703 371.93359 L 319.03906 374.43359 L 321.53906 370.10352 L 325.86914 372.60352 L 328.36914 368.27344 L 332.69922 370.77344 L 330.19922 375.10352 L 334.5293 377.60352 L 337.0293 373.27344 L 341.35938 375.77344 L 343.85938 371.44336 L 348.18945 373.94336 L 350.68945 369.61328 L 346.35938 367.11328 L 342.0293 364.61328 L 339.5293 368.94336 L 335.19922 366.44336 L 337.69922 362.11328 L 342.0293 364.61328 L 344.5293 360.2832 L 348.85938 362.7832 L 353.18945 365.2832 L 355.68945 360.95312 L 360.01953 363.45312 L 362.51953 359.12305 L 358.18945 356.62305 L 353.85938 354.12305 L 351.35938 358.45312 L 347.0293 355.95312 L 349.5293 351.62305 L 353.85938 354.12305 L 356.35938 349.79297 L 360.68945 352.29297 L 363.18945 347.96289 L 358.85938 345.46289 L 361.35938 341.13281 L 357.0293 338.63281 L 359.5293 334.30273 L 361.08008 335.19727 C 356.29851 324.03433 349.85011 312.77948 345.35352 305.28516 C 338.4846 293.83696 326.6543 280.86133 326.6543 280.86133 C 324.59646 288.92117 328.16789 304.14612 332.7207 318.4707 C 330.37676 311.59012 328.27365 304.84395 327.03711 299.56055 C 322.83944 281.62504 290.9747 227.43835 285.44141 236.97852 C 279.90811 246.51867 290.21094 268.8418 290.21094 268.8418 C 290.21094 268.8418 269.79533 221.7125 252.62305 212.93555 C 245.11017 209.09564 239.80732 208.0268 236.21875 208.03906 z M 361.35938 341.13281 L 364.01562 342.66602 C 363.58336 341.43715 363.11132 340.19491 362.62109 338.94727 L 361.35938 341.13281 z M 363.18945 347.96289 L 366.14453 349.66992 C 365.77351 348.18287 365.33474 346.65782 364.83789 345.10742 L 363.18945 347.96289 z M 385.33008 389.61328 L 389.66016 392.11328 L 387.16016 396.44336 L 382.83008 393.94336 L 380.33008 398.27344 L 376 395.77344 L 373.5 400.10352 L 369.16992 397.60352 L 366.66992 401.93359 L 371 404.43359 L 375.33008 406.93359 L 377.83008 402.60352 L 382.16016 405.10352 L 384.66016 400.77344 L 388.99023 403.27344 L 386.49023 407.60352 L 390.82031 410.10352 L 393.32031 405.77344 L 397.65039 408.27344 L 400.15039 403.94336 L 404.48047 406.44336 L 406.98047 402.11328 L 402.65039 399.61328 L 398.32031 397.11328 L 395.82031 401.44336 L 391.49023 398.94336 L 393.99023 394.61328 L 398.32031 397.11328 L 400.82031 392.7832 L 396.49023 390.2832 L 398.99023 385.95312 L 403.32031 388.45312 L 405.82031 384.12305 L 407.63672 385.17188 C 407.42402 384.85181 407.20567 384.54912 406.98242 384.27734 C 405.11086 381.9989 403.3473 376.45742 401.93555 370.85156 L 399.66016 374.79297 L 397.16016 379.12305 L 392.83008 376.62305 L 388.5 374.12305 L 386 378.45312 L 381.66992 375.95312 L 379.88867 379.03906 C 380.70156 380.84319 381.6442 382.62687 382.61914 384.30859 L 383.5 382.7832 L 387.83008 385.2832 L 390.33008 380.95312 L 394.66016 383.45312 L 392.16016 387.7832 L 387.83008 385.2832 L 385.33008 389.61328 z M 381.66992 375.95312 L 384.16992 371.62305 L 388.5 374.12305 L 390.32031 370.96875 C 389.56802 369.5933 388.77729 367.41357 388.01758 364.95898 L 386.66992 367.29297 L 382.33984 364.79297 L 384.83984 360.46289 L 387.08008 361.75586 C 386.43789 359.4301 385.86008 357.09606 385.36328 354.99219 L 383.00977 353.63281 L 380.50977 357.96289 L 379.70312 357.49805 C 378.26033 361.48495 377.07647 366.22651 377.4082 370.53906 C 377.48948 371.59561 377.69727 372.7024 377.99414 373.83203 L 381.66992 375.95312 z M 383.00977 353.63281 L 384.47656 351.09375 C 384.18881 349.77094 383.89648 348.40625 383.89648 348.40625 C 383.89648 348.40625 382.86725 350.14221 381.625 352.83398 L 383.00977 353.63281 z M 403.32031 388.45312 L 400.82031 392.7832 L 405.15039 395.2832 L 409.48047 397.7832 L 411.11328 394.95508 C 410.67843 392.483 410.02901 390.17483 409.22461 388.22656 L 407.65039 390.95312 L 403.32031 388.45312 z M 409.48047 397.7832 L 406.98047 402.11328 L 411.31055 404.61328 L 408.81055 408.94336 L 404.48047 406.44336 L 401.98047 410.77344 L 397.65039 408.27344 L 395.15039 412.60352 L 390.82031 410.10352 L 388.32031 414.43359 L 383.99023 411.93359 L 386.49023 407.60352 L 382.16016 405.10352 L 379.66016 409.43359 L 375.33008 406.93359 L 372.83008 411.26367 L 368.5 408.76367 L 364.16992 406.26367 L 361.66992 410.59375 L 357.33984 408.09375 L 354.83984 412.42383 L 359.16992 414.92383 L 363.5 417.42383 L 366 413.09375 L 370.33008 415.59375 L 367.83008 419.92383 L 363.5 417.42383 L 361 421.75391 L 356.66992 419.25391 L 354.16992 423.58398 L 356.4668 424.91016 C 357.97439 424.61311 359.48655 424.23828 361 423.77344 C 361 423.77344 359.7661 424.58408 357.07812 425.26367 L 358.5 426.08398 L 356 430.41406 L 360.33008 432.91406 L 357.83008 437.24414 L 353.5 434.74414 L 356 430.41406 L 351.66992 427.91406 L 352.78125 425.99023 C 348.85553 426.37608 343.41143 426.24658 336.19531 424.7168 L 336.17969 424.74414 L 336.0957 424.69531 C 333.65965 424.17575 331.0282 423.50124 328.18164 422.62891 C 328.18164 422.62891 327.26796 422.65108 325.72656 422.84961 L 325.01953 424.07422 L 323.50977 423.20312 C 322.24735 423.43794 320.78657 423.76085 319.15625 424.23047 L 318.18945 425.9043 L 316.67188 425.0293 C 315.12144 425.56635 313.48123 426.21394 311.77148 427.01953 L 311.35938 427.73438 L 310.87305 427.45312 C 308.8109 428.47592 306.67258 429.7125 304.52148 431.21484 C 304.52148 431.21484 320.0763 430.49402 336.2168 434.68164 L 338.00977 431.57422 L 342.33984 434.07422 L 344.83984 429.74414 L 349.16992 432.24414 L 346.66992 436.57422 L 342.33984 434.07422 L 339.83984 438.4043 L 336.03125 436.20508 C 332.97924 438.67867 326.18869 444.73205 325.89258 449.91406 C 325.89258 449.91406 335.2174 445.68111 341.95312 444.74414 L 344.16992 440.9043 L 348.5 443.4043 L 347.70703 444.77734 C 349.59228 444.9447 351.39183 445.14338 353.17578 445.30469 L 355.33008 441.57422 L 359.66016 444.07422 L 362.16016 439.74414 L 364.66016 435.41406 L 368.99023 437.91406 L 371.49023 433.58398 L 375.82031 436.08398 L 378.32031 431.75391 L 373.99023 429.25391 L 376.49023 424.92383 L 380.82031 427.42383 L 378.32031 431.75391 L 382.65039 434.25391 L 380.15039 438.58398 L 384.48047 441.08398 L 386.98047 436.75391 L 389.48047 432.42383 L 385.15039 429.92383 L 387.65039 425.59375 L 391.98047 428.09375 L 394.48047 423.76367 L 398.81055 426.26367 L 401.31055 421.93359 L 405.64062 424.43359 L 409.9707 426.93359 L 412.4707 422.60352 L 416.80078 425.10352 L 414.30078 429.43359 L 409.9707 426.93359 L 407.4707 431.26367 L 411.80078 433.76367 L 409.30078 438.09375 L 413.63086 440.59375 L 416.13086 436.26367 L 420.46094 438.76367 L 422.54883 435.14844 C 422.41615 434.76237 422.29654 434.3757 422.19336 433.99023 L 418.63086 431.93359 L 421.13086 427.60352 L 421.66211 427.91016 C 422.27464 420.01156 427.53775 413.06031 430.37305 409.8457 L 426.80078 407.7832 L 427.26562 406.97852 C 422.36471 407.17372 418.8125 410.60937 418.8125 410.60938 C 418.9705 410.15119 419.14526 409.69483 419.32617 409.24219 L 415.64062 407.11328 L 418.14062 402.7832 L 421.47852 404.70898 C 423.0564 401.80818 424.53711 399.73242 424.53711 399.73242 C 417.11891 399.09658 413.23573 403.46376 411.24609 407.47266 C 411.7214 404.74899 411.81675 401.84659 411.61328 399.01562 L 409.48047 397.7832 z M 420.46094 438.76367 L 417.96094 443.09375 L 413.63086 440.59375 L 411.39062 444.47461 C 412.17908 444.45875 412.99772 444.48773 413.85156 444.57227 L 474.9082 476.05469 C 474.9082 476.05469 485.02087 473.57298 484.83008 470.71094 C 484.83008 470.71094 435.7583 447.73184 425.61328 439.83789 L 424.79102 441.26367 L 420.46094 438.76367 z M 409.30078 438.09375 L 404.9707 435.59375 L 402.4707 439.92383 L 398.14062 437.42383 L 395.64062 441.75391 L 391.31055 439.25391 L 388.81055 443.58398 L 393.14062 446.08398 L 390.64062 450.41406 L 394.9707 452.91406 L 392.4707 457.24414 L 388.14062 454.74414 L 390.64062 450.41406 L 386.31055 447.91406 L 388.81055 443.58398 L 384.48047 441.08398 L 381.98047 445.41406 L 377.65039 442.91406 L 378.08008 442.16797 C 377.1136 443.20126 375.90708 444.78087 374.80859 447.04688 L 375.15039 447.24414 L 373.66211 449.82227 C 373.44615 450.44648 373.24143 451.10737 373.05469 451.80664 L 376.60547 453.85742 C 377.18785 453.04853 377.83053 452.22435 378.51953 451.40625 L 379.48047 449.74414 L 379.81836 449.93945 C 381.72889 447.90412 383.97648 445.99419 386.56641 444.57227 C 386.56641 444.57227 381.79682 459.26423 392.29102 467.46875 C 392.29102 467.46875 394.30241 445.67848 410.42188 444.51562 L 406.80078 442.42383 L 409.30078 438.09375 z M 398.14062 437.42383 L 400.64062 433.09375 L 404.9707 435.59375 L 407.4707 431.26367 L 403.14062 428.76367 L 398.81055 426.26367 L 396.31055 430.59375 L 391.98047 428.09375 L 389.48047 432.42383 L 393.81055 434.92383 L 398.14062 437.42383 z M 380.15039 438.58398 L 375.82031 436.08398 L 373.32031 440.41406 L 368.99023 437.91406 L 366.49023 442.24414 L 364.86328 445.0625 C 370.14044 444.11089 376.51591 441.82374 378.76562 440.98438 L 380.15039 438.58398 z M 359.66016 444.07422 L 358.78516 445.58789 C 359.84048 445.58364 360.91721 445.54159 362.03125 445.44336 L 359.66016 444.07422 z M 339.70703 328.63281 L 344.03906 331.13281 L 341.53906 335.46289 L 345.86914 337.96289 L 348.36914 333.63281 L 352.69922 336.13281 L 350.19922 340.46289 L 354.5293 342.96289 L 352.0293 347.29297 L 347.69922 344.79297 L 350.19922 340.46289 L 345.86914 337.96289 L 343.36914 342.29297 L 340.86914 346.62305 L 336.53906 344.12305 L 332.20703 341.62305 L 334.70703 337.29297 L 339.03906 339.79297 L 341.53906 335.46289 L 337.20703 332.96289 L 339.70703 328.63281 z M 398.7793 355.65625 C 398.58296 355.81332 398.34349 356.14611 398.08398 356.5625 L 398.5 356.80273 L 396 361.13281 L 400.28125 363.60352 C 399.34287 359.08549 398.7793 355.65625 398.7793 355.65625 z M 396 361.13281 L 395.89062 361.07031 C 395.7615 361.37304 395.63364 361.67791 395.50391 361.99023 L 396 361.13281 z M 400.29883 363.6875 L 397.83008 367.96289 L 401.7832 370.24414 C 401.22267 367.9762 400.7233 365.72729 400.29883 363.6875 z M 397.83008 367.96289 L 394.00391 365.75391 C 393.24635 367.7186 392.67581 369.25836 392.22656 370.50195 L 395.33008 372.29297 L 397.83008 367.96289 z M 361.84961 370.2832 L 366.17969 372.7832 L 363.67969 377.11328 L 359.34961 374.61328 L 361.84961 370.2832 z M 350.01953 380.77344 L 354.34961 383.27344 L 351.84961 387.60352 L 347.51953 385.10352 L 345.01953 389.43359 L 349.34961 391.93359 L 353.67969 394.43359 L 356.17969 390.10352 L 360.50977 392.60352 L 358.00977 396.93359 L 353.67969 394.43359 L 351.17969 398.76367 L 346.84961 396.26367 L 342.51953 393.76367 L 340.01953 398.09375 L 335.68945 395.59375 L 338.18945 391.26367 L 342.51953 393.76367 L 345.01953 389.43359 L 340.68945 386.93359 L 343.18945 382.60352 L 347.51953 385.10352 L 350.01953 380.77344 z M 372.33984 382.11328 L 376.66992 384.61328 L 374.16992 388.94336 L 369.83984 386.44336 L 367.33984 390.77344 L 363.00977 388.27344 L 365.50977 383.94336 L 369.83984 386.44336 L 372.33984 382.11328 z M 320.19922 392.42383 L 324.5293 394.92383 L 322.0293 399.25391 L 317.69922 396.75391 L 320.19922 392.42383 z M 365.33008 424.25391 L 369.66016 426.75391 L 367.16016 431.08398 L 362.83008 428.58398 L 365.33008 424.25391 z M 372.10742 457.03516 C 371.9415 458.59909 371.85363 460.28723 371.875 462.125 C 371.875 462.125 372.56007 460.45053 373.9082 458.07422 L 372.10742 457.03516 z "
       transform="scale(0.26458333)" />
    <path
       style="fill:#000000;fill-opacity:1;stroke:none;stroke-width:0.264583px;stroke-linecap:butt;stroke-linejoin:miter;stroke-opacity:1"
       d="m 82.231062,117.20246 1.309089,0.19077 -0.190774,1.3091 -1.309089,-0.19077 z"
       id="path4634"
       inkscape:transform-center-x="5.5358566"
       inkscape:transform-center-y="10.668044" />
    <path
       style="fill:#000000;fill-opacity:1;stroke:none;stroke-width:0.264583px;stroke-linecap:butt;stroke-linejoin:miter;stroke-opacity:1"
       d="m 89.83431,120.6841 1.269798,0.37111 -0.371111,1.26981 -1.269798,-0.37111 z"
       id="path4752" />
    <path
       style="fill:#000000;fill-opacity:1;stroke:none;stroke-width:0.264583px;stroke-linecap:butt;stroke-linejoin:miter;stroke-opacity:1"
       d="m 83.410719,120.57603 1.322412,-0.0365 0.03642,1.32243 -1.322413,0.0365 z"
       id="path4754"
       inkscape:transform-center-x="2.6285922"
       inkscape:transform-center-y="8.1457289" />
    <path
       style="fill:#000000;fill-opacity:1;stroke:none;stroke-width:0.264583px;stroke-linecap:butt;stroke-linejoin:miter;stroke-opacity:1"
       d="m 92.807708,124.29544 0.8671,0.99912 -0.999131,0.86711 -0.867099,-0.99912 z"
       id="path4756"
       inkscape:transform-center-x="-1.7676537"
       inkscape:transform-center-y="-0.90021659" />
    <path
       style="fill:#000000;fill-opacity:1;stroke:none;stroke-width:0.264583px;stroke-linecap:butt;stroke-linejoin:miter;stroke-opacity:1"
       d="m 97.809775,125.08346 1.253888,-0.42175 0.421757,1.2539 -1.253889,0.42175 z"
       id="path4758"
       inkscape:transform-center-x="0.23474869"
       inkscape:transform-center-y="2.5058043" />
    <path
       style="fill:#000000;fill-opacity:1;stroke:none;stroke-width:0.264583px;stroke-linecap:butt;stroke-linejoin:miter;stroke-opacity:1"
       d="m 94.654527,125.97308 1.16944,0.61848 -0.618486,1.16946 -1.16944,-0.61848 z"
       id="path4760"
       inkscape:transform-center-x="-1.3231677"
       inkscape:transform-center-y="-1.4779116" />
    <path
       style="fill:#000000;fill-opacity:1;stroke:none;stroke-width:0.264583px;stroke-linecap:butt;stroke-linejoin:miter;stroke-opacity:1"
       d="m 93.622628,120.14259 1.310068,0.18393 -0.183934,1.31008 -1.310068,-0.18393 z"
       id="path4762"
       inkscape:transform-center-x="1.1375746"
       inkscape:transform-center-y="4.8625649" />
    <path
       style="fill:#000000;fill-opacity:1;stroke:none;stroke-width:0.264583px;stroke-linecap:butt;stroke-linejoin:miter;stroke-opacity:1"
       d="m 88.160391,122.73171 1.322412,-0.0365 0.03641,1.32243 -1.322412,0.0365 z"
       id="path4764"
       inkscape:transform-center-x="-2.1210748"
       inkscape:transform-center-y="10.301409" />
    <path
       style="fill:#000000;fill-opacity:1;stroke:none;stroke-width:0.264583px;stroke-linecap:butt;stroke-linejoin:miter;stroke-opacity:1"
       d="m 87.467968,119.19773 1.269798,0.37111 -0.371111,1.26981 -1.269798,-0.37111 z"
       id="path4766"
       inkscape:transform-center-x="-0.99951924"
       inkscape:transform-center-y="-1.7134616" />
    <path
       style="fill:#000000;fill-opacity:1;stroke:none;stroke-width:0.264583px;stroke-linecap:butt;stroke-linejoin:miter;stroke-opacity:1"
       d="m 79.062491,121.1161 1.269798,0.37111 -0.371111,1.26981 -1.269798,-0.37111 z"
       id="path4768"
       inkscape:transform-center-x="-0.99951924"
       inkscape:transform-center-y="-1.7134616" />
    <path
       style="fill:#000000;fill-opacity:1;stroke:none;stroke-width:0.264583px;stroke-linecap:butt;stroke-linejoin:miter;stroke-opacity:1"
       d="m 96.237004,130.53953 1.209775,0.53531 -0.535316,1.20978 -1.209765,-0.53532 z"
       id="path4770"
       inkscape:transform-center-x="8.1312757"
       inkscape:transform-center-y="11.947105" />
    <path
       style="fill:#000000;fill-opacity:1;stroke:none;stroke-width:0.264583px;stroke-linecap:butt;stroke-linejoin:miter;stroke-opacity:1"
       d="m 101.09912,129.1248 0.95537,-0.91509 0.9151,0.95537 -0.95536,0.91509 z"
       id="path4772"
       inkscape:transform-center-x="2.6711592"
       inkscape:transform-center-y="9.67997" />
    <path
       style="fill:#000000;fill-opacity:1;stroke:none;stroke-width:0.264583px;stroke-linecap:butt;stroke-linejoin:miter;stroke-opacity:1"
       d="m 98.622063,131.27215 1.321449,0.0622 -0.06225,1.32148 -1.321449,-0.0623 z"
       id="path4774"
       inkscape:transform-center-x="5.4538517"
       inkscape:transform-center-y="12.49902" />
    <path
       style="fill:#000000;fill-opacity:1;stroke:none;stroke-width:0.264583px;stroke-linecap:butt;stroke-linejoin:miter;stroke-opacity:1"
       d="m 78.947965,128.71791 -1.175358,-0.60715 0.607166,-1.17537 1.175358,0.60715 z"
       id="path4776"
       inkscape:transform-center-x="8.3037215"
       inkscape:transform-center-y="4.9491597" />
    <path
       style="fill:#000000;fill-opacity:1;stroke:none;stroke-width:0.264583px;stroke-linecap:butt;stroke-linejoin:miter;stroke-opacity:1"
       d="m 85.232257,130.05278 -1.304979,-0.21711 0.217224,-1.30498 1.30498,0.21711 z"
       id="path4778"
       inkscape:transform-center-x="2.2792104"
       inkscape:transform-center-y="6.4142447" />
    <path
       style="fill:#000000;fill-opacity:1;stroke:none;stroke-width:0.264583px;stroke-linecap:butt;stroke-linejoin:miter;stroke-opacity:1"
       d="m 89.603497,130.35448 -1.175358,-0.60716 0.607165,-1.17537 1.175358,0.60716 z"
       id="path4782"
       inkscape:transform-center-x="-2.3518101"
       inkscape:transform-center-y="6.5857247" />
  </g>
  <metadata
     id="metadata7229">
    <rdf:RDF>
      <cc:Work
         rdf:about="">
        <cc:license
           rdf:resource="http://creativecommons.org/publicdomain/zero/1.0/" />
        <dc:title>FeatherPowders Banner</dc:title>
        <dc:creator>
          <cc:Agent>
            <dc:title>nahkd123</dc:title>
          </cc:Agent>
        </dc:creator>
      </cc:Work>
      <cc:License
         rdf:about="http://creativecommons.org/publicdomain/zero/1.0/">
        <cc:permits
           rdf:resource="http://creativecommons.org/ns#Reproduction" />
        <cc:permits
           rdf:resource="http://creativecommons.org/ns#Distribution" />
        <cc:permits
           rdf:resource="http://creativecommons.org/ns#DerivativeWorks" />
      </cc:License>
    </rdf:RDF>
  </metadata>
</svg>
